<svg width="20" height="20" viewBox="0 0 20 20" fill="none" xmlns="http://www.w3.org/2000/svg">
<path d="M9.50018 15.1274L15.6635 8.96409C14.6266 8.53115 13.6848 7.89861 12.8918 7.10242C12.0953 6.30927 11.4625 5.36723 11.0293 4.32992L4.86601 10.4933C4.38518 10.9741 4.14435 11.2149 3.93768 11.4799C3.6936 11.7927 3.48431 12.131 3.31351 12.4891C3.16935 12.7924 3.06185 13.1158 2.84685 13.7608L1.71185 17.1633C1.65961 17.319 1.65186 17.4863 1.68947 17.6463C1.72707 17.8062 1.80855 17.9525 1.92474 18.0687C2.04093 18.1849 2.18722 18.2664 2.34717 18.304C2.50712 18.3416 2.67439 18.3338 2.83018 18.2816L6.23268 17.1466C6.87851 16.9316 7.20101 16.8241 7.50435 16.6799C7.86268 16.5091 8.20101 16.2999 8.51351 16.0558C8.77851 15.8491 9.01935 15.6083 9.50018 15.1274ZM17.3735 7.25409C17.988 6.63956 18.3333 5.80608 18.3333 4.93701C18.3333 4.06793 17.988 3.23445 17.3735 2.61992C16.759 2.00539 15.9255 1.66016 15.0564 1.66016C14.1874 1.66016 13.3539 2.00539 12.7393 2.61992L12.0002 3.35909L12.0318 3.45159C12.3961 4.49385 12.9922 5.43984 13.7752 6.21826C14.5769 7.02467 15.556 7.63251 16.6343 7.99326L17.3735 7.25409Z" fill="white"/>
</svg>
