<svg width="24" height="24" viewBox="0 0 24 24" fill="none" xmlns="http://www.w3.org/2000/svg">
<path opacity="0.32" d="M9.49199 2C8.99692 2 8.52212 2.19667 8.17205 2.54673C7.82199 2.8968 7.62532 3.3716 7.62532 3.86667C7.62532 4.36174 7.82199 4.83653 8.17205 5.1866C8.52212 5.53667 8.99692 5.73333 9.49199 5.73333H13.7587C14.2537 5.73333 14.7285 5.53667 15.0786 5.1866C15.4287 4.83653 15.6253 4.36174 15.6253 3.86667C15.6253 3.3716 15.4287 2.8968 15.0786 2.54673C14.7285 2.19667 14.2537 2 13.7587 2H9.49199ZM2.94585 17.152C2.03065 13.4912 1.57305 11.6619 2.53412 10.4309C3.49519 9.2 5.38212 9.2 9.15492 9.2H14.0936C17.8675 9.2 19.7544 9.2 20.7155 10.4309C21.6765 11.6619 21.2189 13.4923 20.3037 17.152C19.7213 19.4805 19.4301 20.6443 18.5619 21.3227C17.6947 22 16.4947 22 14.0947 22H9.15599C6.75599 22 5.55492 22 4.68665 21.3227C3.81945 20.6443 3.52825 19.4805 2.94585 17.152Z" fill="#637381"/>
<path d="M15.443 4.66854C15.5629 4.41875 15.6253 4.1453 15.6256 3.86825C15.626 3.5912 15.5643 3.31758 15.4452 3.06747C16.1737 3.07281 16.7422 3.10587 17.25 3.30427C17.8561 3.54136 18.3832 3.94429 18.771 4.46694C19.1625 4.99387 19.347 5.66907 19.5988 6.59814L19.6489 6.77947L20.195 9.94107C19.7598 9.64027 19.1977 9.46107 18.4702 9.35441L18.0852 7.12827C17.7822 6.01894 17.6724 5.67014 17.4868 5.42054C17.2779 5.13906 16.994 4.92207 16.6676 4.79441C16.4329 4.70267 16.1492 4.67601 15.443 4.66854ZM7.80358 3.06641C7.68425 3.31666 7.6225 3.59047 7.62287 3.86771C7.62324 4.14496 7.68571 4.4186 7.80571 4.66854C7.09958 4.67601 6.81584 4.70267 6.58118 4.79441C6.25474 4.92207 5.97084 5.13906 5.76198 5.42054C5.57638 5.67014 5.46651 6.01894 5.16464 7.12721L4.77851 9.35547C4.05211 9.46214 3.48998 9.64027 3.05371 9.94001L3.59984 6.78054L3.64998 6.59921C3.90278 5.66907 4.08731 4.99281 4.47771 4.46587C4.86569 3.94361 5.3928 3.54107 5.99878 3.30427C6.50651 3.10587 7.07398 3.07174 7.80358 3.06641ZM8.15771 13.4664C8.15771 13.2542 8.07342 13.0507 7.9234 12.9007C7.77337 12.7507 7.56988 12.6664 7.35771 12.6664C7.14554 12.6664 6.94205 12.7507 6.79203 12.9007C6.642 13.0507 6.55771 13.2542 6.55771 13.4664V17.7331C6.55771 17.9452 6.642 18.1487 6.79203 18.2988C6.94205 18.4488 7.14554 18.5331 7.35771 18.5331C7.56988 18.5331 7.77337 18.4488 7.9234 18.2988C8.07342 18.1487 8.15771 17.9452 8.15771 17.7331V13.4664ZM15.891 12.6664C16.1032 12.6664 16.3067 12.7507 16.4567 12.9007C16.6068 13.0507 16.691 13.2542 16.691 13.4664V17.7331C16.691 17.9452 16.6068 18.1487 16.4567 18.2988C16.3067 18.4488 16.1032 18.5331 15.891 18.5331C15.6789 18.5331 15.4754 18.4488 15.3254 18.2988C15.1753 18.1487 15.091 17.9452 15.091 17.7331V13.4664C15.091 13.2542 15.1753 13.0507 15.3254 12.9007C15.4754 12.7507 15.6789 12.6664 15.891 12.6664ZM12.4244 13.4664C12.4244 13.2542 12.3401 13.0507 12.1901 12.9007C12.04 12.7507 11.8365 12.6664 11.6244 12.6664C11.4122 12.6664 11.2087 12.7507 11.0587 12.9007C10.9087 13.0507 10.8244 13.2542 10.8244 13.4664V17.7331C10.8244 17.9452 10.9087 18.1487 11.0587 18.2988C11.2087 18.4488 11.4122 18.5331 11.6244 18.5331C11.8365 18.5331 12.04 18.4488 12.1901 18.2988C12.3401 18.1487 12.4244 17.9452 12.4244 17.7331V13.4664Z" fill="#637381"/>
</svg>
